<svg xmlns="http://www.w3.org/2000/svg" width="1160" height="318" viewBox="0 0 1160 318"><rect width="1160" height="318" rx="14" fill="#0B0F0D"/><text x="28" y="44" font-family="-apple-system,BlinkMacSystemFont,'Segoe UI',Inter,Helvetica,Arial,sans-serif" font-size="10.5" font-weight="700" letter-spacing="1.3" fill="#7C8F86">IN</text><rect x="28" y="62" width="152" height="34" rx="10" fill="#141E18" stroke="#26362E"/><text x="104.0" y="79.0" text-anchor="middle" dominant-baseline="middle" font-family="-apple-system,BlinkMacSystemFont,'Segoe UI',Inter,Helvetica,Arial,sans-serif" font-size="14" font-weight="600" fill="#DCE8E2">Calendar</text><path d="M 180 79 H 208.0 V 196 H 229" stroke="#26362E" stroke-width="1.6" fill="none" stroke-linejoin="round"/><path d="M 229 192 L 236 196 L 229 200 Z" fill="#26362E"/><rect x="28" y="108" width="152" height="34" rx="10" fill="#141E18" stroke="#26362E"/><text x="104.0" y="125.0" text-anchor="middle" dominant-baseline="middle" font-family="-apple-system,BlinkMacSystemFont,'Segoe UI',Inter,Helvetica,Arial,sans-serif" font-size="14" font-weight="600" fill="#DCE8E2">Mail invitation</text><path d="M 180 125 H 208.0 V 196 H 229" stroke="#26362E" stroke-width="1.6" fill="none" stroke-linejoin="round"/><path d="M 229 192 L 236 196 L 229 200 Z" fill="#26362E"/><rect x="28" y="154" width="152" height="34" rx="10" fill="#141E18" stroke="#26362E"/><text x="104.0" y="171.0" text-anchor="middle" dominant-baseline="middle" font-family="-apple-system,BlinkMacSystemFont,'Segoe UI',Inter,Helvetica,Arial,sans-serif" font-size="14" font-weight="600" fill="#DCE8E2">Telegram</text><path d="M 180 171 H 208.0 V 196 H 229" stroke="#26362E" stroke-width="1.6" fill="none" stroke-linejoin="round"/><path d="M 229 192 L 236 196 L 229 200 Z" fill="#26362E"/><rect x="28" y="200" width="152" height="34" rx="10" fill="#141E18" stroke="#26362E"/><text x="104.0" y="217.0" text-anchor="middle" dominant-baseline="middle" font-family="-apple-system,BlinkMacSystemFont,'Segoe UI',Inter,Helvetica,Arial,sans-serif" font-size="14" font-weight="600" fill="#DCE8E2">Panel · HTTP</text><path d="M 180 217 H 208.0 V 196 H 229" stroke="#26362E" stroke-width="1.6" fill="none" stroke-linejoin="round"/><path d="M 229 192 L 236 196 L 229 200 Z" fill="#26362E"/><text x="236" y="44" font-family="-apple-system,BlinkMacSystemFont,'Segoe UI',Inter,Helvetica,Arial,sans-serif" font-size="10.5" font-weight="700" letter-spacing="1.3" fill="#7C8F86">RECORDS</text><rect x="236" y="152" width="164" height="88" rx="10" fill="#12251C" stroke="#2C5643"/><text x="318.0" y="190.0" text-anchor="middle" dominant-baseline="middle" font-family="-apple-system,BlinkMacSystemFont,'Segoe UI',Inter,Helvetica,Arial,sans-serif" font-size="14" font-weight="600" fill="#6BCB9B">Bot in a container</text><text x="318.0" y="209.0" text-anchor="middle" dominant-baseline="middle" font-family="-apple-system,BlinkMacSystemFont,'Segoe UI',Inter,Helvetica,Arial,sans-serif" font-size="11.5" fill="#7C8F86">Chromium · ffmpeg</text><text x="432" y="44" font-family="-apple-system,BlinkMacSystemFont,'Segoe UI',Inter,Helvetica,Arial,sans-serif" font-size="10.5" font-weight="700" letter-spacing="1.3" fill="#7C8F86">ON DISK</text><rect x="432" y="128" width="150" height="40" rx="10" fill="#141E18" stroke="#26362E"/><text x="507.0" y="148.0" text-anchor="middle" dominant-baseline="middle" font-family="'SF Mono',Menlo,Consolas,monospace" font-size="13" font-weight="500" fill="#DCE8E2">audio.ogg</text><rect x="432" y="220" width="150" height="40" rx="10" fill="#141E18" stroke="#26362E"/><text x="507.0" y="240.0" text-anchor="middle" dominant-baseline="middle" font-family="'SF Mono',Menlo,Consolas,monospace" font-size="13" font-weight="500" fill="#DCE8E2">captions.jsonl</text><path d="M 400 186 H 416.0 V 148 H 425" stroke="#26362E" stroke-width="1.6" fill="none" stroke-linejoin="round"/><path d="M 425 144 L 432 148 L 425 152 Z" fill="#26362E"/><path d="M 400 206 H 416.0 V 240 H 425" stroke="#26362E" stroke-width="1.6" fill="none" stroke-linejoin="round"/><path d="M 425 236 L 432 240 L 425 244 Z" fill="#26362E"/><text x="614" y="44" font-family="-apple-system,BlinkMacSystemFont,'Segoe UI',Inter,Helvetica,Arial,sans-serif" font-size="10.5" font-weight="700" letter-spacing="1.3" fill="#7C8F86">TEXT · NAMES</text><rect x="614" y="120" width="150" height="56" rx="10" fill="#141E18" stroke="#26362E"/><text x="689.0" y="142.0" text-anchor="middle" dominant-baseline="middle" font-family="-apple-system,BlinkMacSystemFont,'Segoe UI',Inter,Helvetica,Arial,sans-serif" font-size="14" font-weight="600" fill="#DCE8E2">whisper</text><text x="689.0" y="161.0" text-anchor="middle" dominant-baseline="middle" font-family="-apple-system,BlinkMacSystemFont,'Segoe UI',Inter,Helvetica,Arial,sans-serif" font-size="11.5" fill="#7C8F86">or Groq</text><rect x="614" y="212" width="150" height="56" rx="10" fill="#141E18" stroke="#26362E"/><text x="689.0" y="234.0" text-anchor="middle" dominant-baseline="middle" font-family="-apple-system,BlinkMacSystemFont,'Segoe UI',Inter,Helvetica,Arial,sans-serif" font-size="14" font-weight="600" fill="#DCE8E2">speaker names</text><text x="689.0" y="253.0" text-anchor="middle" dominant-baseline="middle" font-family="-apple-system,BlinkMacSystemFont,'Segoe UI',Inter,Helvetica,Arial,sans-serif" font-size="11.5" fill="#7C8F86">from the platform</text><path d="M 582 148 L 607 148" stroke="#26362E" stroke-width="1.6" fill="none"/><path d="M 607 144 L 614 148 L 607 152 Z" fill="#26362E"/><path d="M 582 240 L 607 240" stroke="#26362E" stroke-width="1.6" fill="none"/><path d="M 607 236 L 614 240 L 607 244 Z" fill="#26362E"/><rect x="796" y="168" width="150" height="56" rx="10" fill="#141E18" stroke="#26362E"/><text x="871.0" y="190.0" text-anchor="middle" dominant-baseline="middle" font-family="-apple-system,BlinkMacSystemFont,'Segoe UI',Inter,Helvetica,Arial,sans-serif" font-size="14" font-weight="600" fill="#DCE8E2">transcript</text><text x="871.0" y="209.0" text-anchor="middle" dominant-baseline="middle" font-family="-apple-system,BlinkMacSystemFont,'Segoe UI',Inter,Helvetica,Arial,sans-serif" font-size="11.5" fill="#7C8F86">stitched by time</text><path d="M 764 148 H 780.0 V 190 H 789" stroke="#26362E" stroke-width="1.6" fill="none" stroke-linejoin="round"/><path d="M 789 186 L 796 190 L 789 194 Z" fill="#26362E"/><path d="M 764 240 H 780.0 V 202 H 789" stroke="#26362E" stroke-width="1.6" fill="none" stroke-linejoin="round"/><path d="M 789 198 L 796 202 L 789 206 Z" fill="#26362E"/><text x="796" y="44" font-family="-apple-system,BlinkMacSystemFont,'Segoe UI',Inter,Helvetica,Arial,sans-serif" font-size="10.5" font-weight="700" letter-spacing="1.3" fill="#7C8F86">FOLLOW-UP</text><rect x="796" y="78" width="150" height="56" rx="10" fill="#12251C" stroke="#2C5643"/><text x="871.0" y="100.0" text-anchor="middle" dominant-baseline="middle" font-family="-apple-system,BlinkMacSystemFont,'Segoe UI',Inter,Helvetica,Arial,sans-serif" font-size="14" font-weight="600" fill="#6BCB9B">Claude</text><text x="871.0" y="119.0" text-anchor="middle" dominant-baseline="middle" font-family="-apple-system,BlinkMacSystemFont,'Segoe UI',Inter,Helvetica,Arial,sans-serif" font-size="11.5" fill="#7C8F86">+ project state</text><path d="M 871 168 V 140" stroke="#6BCB9B" stroke-width="1.6" fill="none"/><path d="M 867 140 L 871 133 L 875 140 Z" fill="#6BCB9B"/><text x="978" y="44" font-family="-apple-system,BlinkMacSystemFont,'Segoe UI',Inter,Helvetica,Arial,sans-serif" font-size="10.5" font-weight="700" letter-spacing="1.3" fill="#7C8F86">OUT</text><rect x="978" y="62" width="152" height="34" rx="10" fill="#141E18" stroke="#26362E"/><text x="1054.0" y="79.0" text-anchor="middle" dominant-baseline="middle" font-family="-apple-system,BlinkMacSystemFont,'Segoe UI',Inter,Helvetica,Arial,sans-serif" font-size="14" font-weight="600" fill="#DCE8E2">Google Docs</text><path d="M 946 106 H 962.0 V 79 H 971" stroke="#26362E" stroke-width="1.6" fill="none" stroke-linejoin="round"/><path d="M 971 75 L 978 79 L 971 83 Z" fill="#26362E"/><rect x="978" y="108" width="152" height="34" rx="10" fill="#141E18" stroke="#26362E"/><text x="1054.0" y="125.0" text-anchor="middle" dominant-baseline="middle" font-family="-apple-system,BlinkMacSystemFont,'Segoe UI',Inter,Helvetica,Arial,sans-serif" font-size="14" font-weight="600" fill="#DCE8E2">Slack</text><path d="M 946 106 H 962.0 V 125 H 971" stroke="#26362E" stroke-width="1.6" fill="none" stroke-linejoin="round"/><path d="M 971 121 L 978 125 L 971 129 Z" fill="#26362E"/><rect x="978" y="154" width="152" height="34" rx="10" fill="#141E18" stroke="#26362E"/><text x="1054.0" y="171.0" text-anchor="middle" dominant-baseline="middle" font-family="-apple-system,BlinkMacSystemFont,'Segoe UI',Inter,Helvetica,Arial,sans-serif" font-size="14" font-weight="600" fill="#DCE8E2">Telegram</text><path d="M 946 106 H 962.0 V 171 H 971" stroke="#26362E" stroke-width="1.6" fill="none" stroke-linejoin="round"/><path d="M 971 167 L 978 171 L 971 175 Z" fill="#26362E"/><rect x="978" y="200" width="152" height="34" rx="10" fill="#141E18" stroke="#26362E"/><text x="1054.0" y="217.0" text-anchor="middle" dominant-baseline="middle" font-family="-apple-system,BlinkMacSystemFont,'Segoe UI',Inter,Helvetica,Arial,sans-serif" font-size="14" font-weight="600" fill="#DCE8E2">Panel</text><path d="M 946 106 H 962.0 V 217 H 971" stroke="#26362E" stroke-width="1.6" fill="none" stroke-linejoin="round"/><path d="M 971 213 L 978 217 L 971 221 Z" fill="#26362E"/><text x="580.0" y="302" text-anchor="middle" font-family="-apple-system,BlinkMacSystemFont,'Segoe UI',Inter,Helvetica,Arial,sans-serif" font-size="11.5" fill="#7C8F86">Text comes from whisper because it is accurate. Names come from the platform because they are authoritative.</text></svg>